<?xml version="1.0" encoding="UTF-8" standalone="no"?>
<!-- Created with Inkscape (http://www.inkscape.org/) -->

<svg
   xmlns:dc="http://purl.org/dc/elements/1.1/"
   xmlns:cc="http://creativecommons.org/ns#"
   xmlns:rdf="http://www.w3.org/1999/02/22-rdf-syntax-ns#"
   xmlns:svg="http://www.w3.org/2000/svg"
   xmlns="http://www.w3.org/2000/svg"
   xmlns:sodipodi="http://sodipodi.sourceforge.net/DTD/sodipodi-0.dtd"
   xmlns:inkscape="http://www.inkscape.org/namespaces/inkscape"
   id="svg2"
   version="1.1"
   inkscape:version="0.91 r13725"
   width="1125"
   height="1080"
   xml:space="preserve"
   sodipodi:docname="bm_map_clock.svg"><metadata
     id="metadata8"><rdf:RDF><cc:Work
         rdf:about=""><dc:format>image/svg+xml</dc:format><dc:type
           rdf:resource="http://purl.org/dc/dcmitype/StillImage" /><dc:title></dc:title></cc:Work></rdf:RDF></metadata><defs
     id="defs6" /><sodipodi:namedview
     pagecolor="#ffffff"
     bordercolor="#666666"
     borderopacity="1"
     objecttolerance="10"
     gridtolerance="10"
     guidetolerance="10"
     inkscape:pageopacity="0"
     inkscape:pageshadow="2"
     inkscape:window-width="1366"
     inkscape:window-height="705"
     id="namedview4"
     showgrid="false"
     inkscape:zoom="0.49481972"
     inkscape:cx="675.71739"
     inkscape:cy="471.72535"
     inkscape:window-x="-8"
     inkscape:window-y="-8"
     inkscape:window-maximized="1"
     inkscape:current-layer="g10"
     units="in" /><g
     id="g10"
     inkscape:groupmode="layer"
     inkscape:label="bm_map"
     transform="matrix(1.25,0,0,-1.25,0,1080.0001)"><path
       d="m 74.583468,631.42569 2.449786,0 -2.099816,-0.14582 c 4.89957,-3.23722 10.047036,-6.06614 15.107009,-9.02629 -15.384068,-28.90164 -28.930798,-58.999 -37.300896,-90.74414 -6.022389,1.37072 -12.001032,2.88725 -17.935929,4.56419 9.43459,33.18875 22.41262,65.50259 39.779846,95.35206"
       style="fill:#343132;fill-opacity:1;fill-rule:nonzero;stroke:none"
       id="path14"
       inkscape:connector-curvature="0" /><path
       d="m 796.51189,631.42569 0.0875,0 c 16.62355,-30.19944 30.38901,-62.0904 39.35697,-95.41039 -5.94948,-1.56028 -11.89896,-3.0914 -17.83385,-4.62251 -8.31177,31.81804 -21.88767,61.92999 -37.35923,90.83162 5.27871,3.01849 10.49908,6.13905 15.74862,9.20128"
       style="fill:#343132;fill-opacity:1;fill-rule:nonzero;stroke:none"
       id="path16"
       inkscape:connector-curvature="0" /><path
       d="m 61.372126,541.90645 c 8.545084,26.80182 19.408716,52.99119 33.713713,77.25573 6.095301,-3.35387 12.146851,-6.80982 18.198411,-10.22202 -2.53728,-5.84741 -5.96406,-11.25735 -8.79299,-16.94435 -10.863627,-21.62519 -19.496204,-44.32945 -26.145621,-67.57325 -6.664,1.76443 -13.298835,3.67468 -20.021161,5.2058 0.772849,4.15588 1.706101,8.26802 3.047648,12.27809"
       style="fill:#343132;fill-opacity:1;fill-rule:nonzero;stroke:none"
       id="path18"
       inkscape:connector-curvature="0" /><path
       d="m 757.63613,608.96932 c 6.12446,3.45595 12.1906,7.01397 18.49005,10.14911 15.54447,-28.2746 28.6829,-58.06574 36.63012,-89.41716 -6.76607,-1.60403 -13.45924,-3.47053 -20.16698,-5.26412 -6.57651,22.16472 -14.55289,43.96489 -24.83324,64.70058 -3.28097,6.664 -7.05772,13.06552 -10.11995,19.83159"
       style="fill:#343132;fill-opacity:1;fill-rule:nonzero;stroke:none"
       id="path20"
       inkscape:connector-curvature="0" /><path
       d="m 117.93592,605.92167 c 6.21196,-3.20805 12.16144,-6.89731 18.30048,-10.25118 -13.25509,-24.7895 -24.84782,-50.65806 -31.94928,-77.92651 -6.941063,1.3853 -13.794629,3.20805 -20.47321,5.5266 7.757653,28.88705 19.71494,56.49088 34.12201,82.65109"
       style="fill:#343132;fill-opacity:1;fill-rule:nonzero;stroke:none"
       id="path22"
       inkscape:connector-curvature="0" /><path
       d="m 734.59648,595.68507 c 6.0953,3.36845 12.07394,6.97022 18.22757,10.2366 14.43624,-26.26228 26.96222,-53.86611 33.94703,-83.10313 -6.69317,-1.73527 -13.35717,-3.54344 -20.06491,-5.2058 -7.30561,27.26845 -18.72336,53.26825 -32.10969,78.07233"
       style="fill:#343132;fill-opacity:1;fill-rule:nonzero;stroke:none"
       id="path24"
       inkscape:connector-curvature="0" /><path
       d="m 109.47833,516.06704 c 7.13063,26.77266 17.86302,52.56832 31.58473,76.62871 6.31403,-3.4122 12.40933,-7.2327 18.73795,-10.63032 -12.89054,-22.4272 -22.63136,-46.57509 -29.82031,-71.40833 -6.86815,1.7061 -13.67797,3.54344 -20.50237,5.40994"
       style="fill:#343132;fill-opacity:1;fill-rule:nonzero;stroke:none"
       id="path26"
       inkscape:connector-curvature="0" /><path
       d="m 711.26519,582.19667 c 6.21196,3.44136 12.30726,7.11604 18.5338,10.55741 13.61964,-24.13331 24.51243,-49.87063 31.61389,-76.67245 -6.83898,-1.69152 -13.54673,-3.83508 -20.41488,-5.33704 -7.05771,24.87699 -16.97351,48.95197 -29.73281,71.45208"
       style="fill:#343132;fill-opacity:1;fill-rule:nonzero;stroke:none"
       id="path28"
       inkscape:connector-curvature="0" /><path
       d="m 135.37606,509.09682 c 6.64942,24.26454 16.24441,47.85831 28.87247,69.61474 6.54735,-2.53728 12.45308,-6.45985 18.47547,-10.01788 -11.35942,-20.53153 -20.47321,-42.28796 -26.91848,-64.86098 -6.83898,1.60403 -13.61964,3.52886 -20.42946,5.26412"
       style="fill:#343132;fill-opacity:1;fill-rule:nonzero;stroke:none"
       id="path30"
       inkscape:connector-curvature="0" /><path
       d="m 688.0214,568.86867 c 6.35777,3.29554 12.29267,7.42227 18.98583,10.04704 12.23435,-22.01891 22.04807,-45.40853 28.62458,-69.7314 -6.86815,-1.8665 -13.70713,-3.82049 -20.64819,-5.33703 -6.3432,22.64593 -15.64655,44.41694 -26.96222,65.02139"
       style="fill:#343132;fill-opacity:1;fill-rule:nonzero;stroke:none"
       id="path32"
       inkscape:connector-curvature="0" /><path
       d="m 187.30276,565.76269 c 6.27029,-3.10598 12.24893,-6.76607 18.38798,-10.11995 -9.66791,-18.84001 -18.27132,-38.29247 -24.11873,-58.67819 -6.94105,1.31239 -13.63422,3.63093 -20.51695,5.19121 6.08072,22.19389 15.25283,43.43995 26.2477,63.60693"
       style="fill:#343132;fill-opacity:1;fill-rule:nonzero;stroke:none"
       id="path34"
       inkscape:connector-curvature="0" /><path
       d="m 665.60878,555.49692 c 5.687,3.71843 11.65106,7.01397 17.6297,10.25119 11.7823,-19.8316 20.22531,-41.50053 26.58309,-63.63609 -6.92648,-1.64777 -13.79463,-3.51428 -20.69194,-5.29329 -3.8205,14.01336 -8.99713,27.633 -15.12159,40.80059 -2.72684,5.99323 -6.5036,11.53441 -8.39926,17.8776"
       style="fill:#343132;fill-opacity:1;fill-rule:nonzero;stroke:none"
       id="path36"
       inkscape:connector-curvature="0" /><path
       d="m 187.04029,495.57926 c 5.29328,19.91908 13.73629,38.90492 23.47711,57.03042 6.06613,-3.52886 12.29267,-6.76608 18.1984,-10.55741 -8.45759,-16.76937 -16.21524,-33.94703 -21.31896,-52.07252 -6.80982,1.72068 -13.78005,3.09139 -20.35655,5.59951"
       style="fill:#343132;fill-opacity:1;fill-rule:nonzero;stroke:none"
       id="path38"
       inkscape:connector-curvature="0" /><path
       d="m 642.16083,541.92103 c 5.94948,3.89341 12.05936,7.50976 18.50463,10.52824 9.42001,-18.34422 17.89218,-37.28631 23.36045,-57.21998 -6.91189,-1.63319 -13.70713,-3.71843 -20.63361,-5.24954 -4.84124,18.16924 -12.86137,35.20108 -21.23147,51.94128"
       style="fill:#343132;fill-opacity:1;fill-rule:nonzero;stroke:none"
       id="path40"
       inkscape:connector-curvature="0" /><path
       d="m 212.86511,488.25906 c 4.53502,17.83386 11.98645,34.85112 20.89608,50.92054 9.84289,-5.78907 20.05033,-11.05319 29.63074,-17.26515 0.74368,-2.40604 -1.3853,-4.53502 -2.14356,-6.70775 -5.96406,-11.33025 -10.60116,-23.3167 -14.20292,-35.58021 -11.57816,2.09981 -22.70427,6.08071 -34.18034,8.63257"
       style="fill:#343132;fill-opacity:1;fill-rule:nonzero;stroke:none"
       id="path42"
       inkscape:connector-curvature="0" /><path
       d="m 606.40563,521.31659 c 10.09078,6.22653 20.45862,11.98644 30.69523,17.96509 8.96796,-16.11317 16.24441,-33.24709 21.08565,-51.06636 -11.56357,-2.47895 -22.77717,-6.37236 -34.38449,-8.66174 -4.11214,14.55289 -10.0762,28.55166 -17.39639,41.76301"
       style="fill:#343132;fill-opacity:1;fill-rule:nonzero;stroke:none"
       id="path44"
       inkscape:connector-curvature="0" /><path
       d="m 33.520401,530.53244 c 5.847404,-1.16656 11.56357,-2.8435 17.338064,-4.33087 -4.520437,-20.63361 -8.792979,-41.36929 -10.659482,-62.44036 -1.166565,-11.63648 -1.326967,-23.34587 -1.953996,-35.0261 -5.67242,-0.11665 -11.359421,-0.0875 -17.046423,-0.0875 0.05833,8.25344 -0.01458,16.49231 -0.306223,24.73117 1.924831,25.9998 5.789076,51.95586 12.62806,77.15365"
       style="fill:#343132;fill-opacity:1;fill-rule:nonzero;stroke:none"
       id="path46"
       inkscape:connector-curvature="0" /><path
       d="m 819.97442,526.20157 c 5.73075,1.56028 11.47608,3.0914 17.3089,4.33087 6.44527,-23.725 10.44075,-48.1062 12.26351,-72.63322 -0.0729,-9.69706 -0.11666,-19.42329 -0.0875,-29.13494 -5.64326,-0.23332 -11.3011,-0.39372 -16.90061,0.42288 -0.67077,25.28528 -2.82892,50.61431 -7.9618,75.41839 -1.39988,7.2327 -3.48511,14.31958 -4.62251,21.59602"
       style="fill:#343132;fill-opacity:1;fill-rule:nonzero;stroke:none"
       id="path48"
       inkscape:connector-curvature="0" /><path
       d="m 56.647542,524.65588 c 6.663997,-1.76443 13.269668,-3.79134 20.035742,-5.22038 -6.838984,-29.73281 -11.446913,-60.04891 -11.651062,-90.6129 -7.072295,-0.29164 -14.159175,-0.17498 -21.231472,-0.1604 0.510372,32.343 4.272543,64.75891 12.846792,95.99368"
       style="fill:#343132;fill-opacity:1;fill-rule:nonzero;stroke:none"
       id="path50"
       inkscape:connector-curvature="0" /><path
       d="m 794.20793,519.37717 c 6.70774,1.57486 13.34258,3.44137 19.97741,5.29329 8.4576,-31.24935 12.67181,-63.65068 12.5989,-96.00826 -7.01397,0 -14.01336,-0.11665 -20.99816,0.1604 -0.0729,30.54941 -4.84124,60.83634 -11.57815,90.55457"
       style="fill:#343132;fill-opacity:1;fill-rule:nonzero;stroke:none"
       id="path52"
       inkscape:connector-curvature="0" /><path
       d="m 82.180719,517.61274 c 6.853567,-1.67693 13.765461,-3.23721 20.385711,-5.70158 -6.736906,-27.16637 -10.586569,-55.10559 -10.571987,-83.11772 -7.028551,-0.24789 -14.071684,-0.11666 -21.100235,-0.1604 -0.5687,30.00987 4.097558,59.91767 11.286511,88.9797"
       style="fill:#343132;fill-opacity:1;fill-rule:nonzero;stroke:none"
       id="path54"
       inkscape:connector-curvature="0" /><path
       d="m 768.51434,512.46528 c 6.78066,1.64777 13.47382,3.61635 20.28364,5.1183 7.10146,-29.10578 11.4615,-58.96983 11.43234,-88.96512 -7.10147,0.0146 -14.18834,0.0437 -21.27522,0.0292 0.0437,28.24544 -4.34546,56.30132 -10.44076,83.81766"
       style="fill:#343132;fill-opacity:1;fill-rule:nonzero;stroke:none"
       id="path56"
       inkscape:connector-curvature="0" /><path
       d="m 107.75765,510.86125 c 6.9848,-1.77901 13.92586,-3.74759 20.92525,-5.48285 -6.53276,-24.96448 -9.84289,-50.77472 -10.09078,-76.57038 -7.02856,-0.23331 -14.07169,-0.24789 -21.114824,0 -0.364551,27.66216 4.112144,55.14934 10.280354,82.05323"
       style="fill:#343132;fill-opacity:1;fill-rule:nonzero;stroke:none"
       id="path58"
       inkscape:connector-curvature="0" /><path
       d="m 742.25206,505.27632 c 6.9119,1.91025 13.83837,3.8205 20.8086,5.57035 6.35777,-26.86015 10.60115,-54.36191 10.30951,-82.02407 -6.98481,-0.26247 -13.98419,-0.24789 -20.969,-0.0292 -0.61244,25.73733 -3.47053,51.56215 -10.14911,76.48288"
       style="fill:#343132;fill-opacity:1;fill-rule:nonzero;stroke:none"
       id="path60"
       inkscape:connector-curvature="0" /><path
       d="m 134.19492,503.86186 c 6.70774,-1.85192 13.4009,-3.70384 20.18156,-5.2787 -5.74533,-22.80634 -8.76381,-46.26886 -9.12837,-69.77514 -7.04313,-0.26247 -14.07168,-0.13124 -21.10023,-0.18956 0.13124,25.35819 3.06223,50.83304 10.04704,75.2434"
       style="fill:#343132;fill-opacity:1;fill-rule:nonzero;stroke:none"
       id="path62"
       inkscape:connector-curvature="0" /><path
       d="m 716.57306,498.64149 c 6.85357,1.44362 13.54673,3.60177 20.37113,5.20579 6.53276,-24.51243 9.65332,-49.91437 9.84289,-75.25799 -7.05771,0.11666 -14.10085,-0.0583 -21.14398,0.26248 -0.39372,23.52086 -3.51428,46.93964 -9.07004,69.78972"
       style="fill:#343132;fill-opacity:1;fill-rule:nonzero;stroke:none"
       id="path64"
       inkscape:connector-curvature="0" /><path
       d="m 159.66977,496.78957 c 6.86815,-1.53112 13.6488,-3.4122 20.42946,-5.30787 -5.14747,-20.5607 -7.58267,-41.6901 -8.3701,-62.84866 -7.01397,0 -14.02794,0.0292 -21.04191,-0.0146 0.30622,22.98132 3.20805,45.91889 8.98255,68.17111"
       style="fill:#343132;fill-opacity:1;fill-rule:nonzero;stroke:none"
       id="path66"
       inkscape:connector-curvature="0" /><path
       d="m 690.60242,491.46712 c 6.8244,1.91025 13.67797,3.77675 20.58986,5.35161 5.94948,-22.22305 8.3701,-45.21895 9.17212,-68.15653 -7.05772,0.11666 -14.11543,-0.33538 -21.14399,0.26248 -1.1374,21.02732 -3.06223,42.15672 -8.61799,62.54244"
       style="fill:#343132;fill-opacity:1;fill-rule:nonzero;stroke:none"
       id="path68"
       inkscape:connector-curvature="0" /><path
       d="m 185.30502,490.06724 c 6.9119,-1.74985 13.78004,-3.73301 20.75027,-5.2787 -3.63094,-14.42166 -5.92032,-29.1787 -6.89732,-44.02323 -5.14746,-2.59561 -8.99712,-6.73691 -11.86979,-11.65106 -3.26638,-0.78743 -6.64942,-0.37914 -9.97413,-0.33539 0.36456,20.64819 3.23722,41.19431 7.99097,61.28838"
       style="fill:#343132;fill-opacity:1;fill-rule:nonzero;stroke:none"
       id="path70"
       inkscape:connector-curvature="0" /><path
       d="m 664.85051,484.68646 c 6.89731,1.67694 13.75088,3.58719 20.63361,5.32245 4.9579,-20.12324 7.72849,-40.80059 8.07846,-61.52169 -3.33929,0.10207 -6.67858,0.24789 -10.00329,0.42288 -2.21648,5.67242 -6.48902,9.87205 -11.75314,12.74471 -1.26864,14.49457 -3.42678,28.90164 -6.95564,43.03165"
       style="fill:#343132;fill-opacity:1;fill-rule:nonzero;stroke:none"
       id="path72"
       inkscape:connector-curvature="0" /><path
       d="m 211.26108,483.00952 c 11.47608,-2.63935 22.73343,-6.13904 34.18034,-8.95338 -2.47895,-10.73239 -4.1413,-21.6106 -5.49744,-32.53256 -7.84514,-1.67694 -15.42781,-4.62252 -23.4042,-5.62868 -4.03922,1.66236 -7.85972,3.83508 -11.70939,5.89115 0.55412,13.91128 3.14973,27.72049 6.43069,41.22347"
       style="fill:#343132;fill-opacity:1;fill-rule:nonzero;stroke:none"
       id="path74"
       inkscape:connector-curvature="0" /><path
       d="m 625.5227,474.1728 c 11.41775,2.71226 22.64594,6.16821 34.06369,8.85131 3.4122,-13.35717 5.61409,-27.03514 6.53276,-40.8006 -4.02465,-1.6186 -7.71391,-4.12672 -11.92812,-5.19121 -7.93264,0.71452 -15.57364,3.16431 -23.27296,5.04539 -1.51654,10.74698 -3.06224,21.49395 -5.39537,32.09511"
       style="fill:#343132;fill-opacity:1;fill-rule:nonzero;stroke:none"
       id="path76"
       inkscape:connector-curvature="0" /><path
       d="m 21.198564,423.06269 c 5.687002,0 11.359421,0.0292 17.046423,-0.18956 0.831177,-28.09963 3.310127,-56.30132 9.755395,-83.73017 1.064491,-4.53502 2.070652,-9.07004 2.872665,-13.66338 -5.905732,-1.3853 -11.738554,-3.13515 -17.702615,-4.21422 -5.162048,21.87308 -9.347098,44.02323 -11.359422,66.42127 -1.953995,11.72397 -0.07291,23.5646 -0.612446,35.37606"
       style="fill:#343132;fill-opacity:1;fill-rule:nonzero;stroke:none"
       id="path78"
       inkscape:connector-curvature="0" /><path
       d="m 43.844497,423.07727 c 6.984804,-0.0583 13.955027,-0.0729 20.93983,-0.0146 0.816595,-20.29822 2.303965,-40.59644 5.74533,-60.63219 1.618608,-10.09078 4.316288,-19.96283 6.270284,-29.99528 -6.882731,-1.57487 -13.605058,-3.74759 -20.546115,-5.01623 -7.786818,31.27851 -12.190599,63.41736 -12.409329,95.65828"
       style="fill:#343132;fill-opacity:1;fill-rule:nonzero;stroke:none"
       id="path80"
       inkscape:connector-curvature="0" /><path
       d="m 70.90879,422.90229 c 6.999387,0.2479 14.013356,0.14582 21.012743,0.1604 0.174984,-28.12878 3.849662,-56.18466 10.805307,-83.42394 -6.766078,-1.99774 -13.59048,-3.76217 -20.414882,-5.54118 C 74.889691,363.05753 70.413,392.96533 70.90879,422.90229"
       style="fill:#343132;fill-opacity:1;fill-rule:nonzero;stroke:none"
       id="path82"
       inkscape:connector-curvature="0" /><path
       d="m 97.521042,423.06269 c 6.999388,-0.0146 13.998778,0.0583 20.998168,-0.11665 0.43746,-25.7665 3.49969,-51.57674 10.2366,-76.49747 -7.01397,-1.76443 -13.99877,-3.64551 -20.95442,-5.58493 -6.10988,26.94764 -10.776138,54.47856 -10.280348,82.19905"
       style="fill:#343132;fill-opacity:1;fill-rule:nonzero;stroke:none"
       id="path84"
       inkscape:connector-curvature="0" /><path
       d="m 124.1333,423.06269 c 7.02855,-0.0146 14.0571,-0.0146 21.08565,0 0.34997,-23.50627 3.51428,-46.89589 9.02629,-69.73139 -6.78065,-1.73526 -13.44465,-3.92257 -20.40029,-4.8704 -6.41611,24.30828 -9.69707,49.46233 -9.71165,74.60179"
       style="fill:#343132;fill-opacity:1;fill-rule:nonzero;stroke:none"
       id="path86"
       inkscape:connector-curvature="0" /><path
       d="m 150.7018,423.07727 c 7.01397,-0.0729 14.02794,0 21.04191,-0.0146 0.69994,-21.20231 3.48511,-42.28796 8.18053,-62.96531 -6.79524,-1.3853 -13.35716,-4.12673 -20.28364,-4.71001 -5.89115,22.04807 -8.63257,44.88357 -8.9388,67.6899"
       style="fill:#343132;fill-opacity:1;fill-rule:nonzero;stroke:none"
       id="path88"
       inkscape:connector-curvature="0" /><path
       d="m 177.3578,423.17935 c 3.23722,-0.11666 6.51818,0.0875 9.71165,-0.49579 2.65393,-5.46827 6.9848,-9.44917 11.82605,-12.93428 2.01232,-14.1446 3.10598,-28.50792 7.15979,-42.28797 -6.79524,-2.15814 -13.70714,-3.95173 -20.61903,-5.73074 -5.00165,20.09407 -7.8014,40.72768 -8.07846,61.44878"
       style="fill:#343132;fill-opacity:1;fill-rule:nonzero;stroke:none"
       id="path90"
       inkscape:connector-curvature="0" /><path
       d="m 683.71969,422.59607 c 3.13514,0.86034 6.45985,0.34997 9.6679,0.46662 -0.0146,-20.64819 -3.03307,-41.23805 -7.90347,-61.2738 -6.88273,1.77902 -13.75088,3.60177 -20.66278,5.27871 3.83509,14.37791 5.51202,29.19327 7.11605,43.93573 4.91415,2.81434 8.74923,6.83899 11.7823,11.59274"
       style="fill:#343132;fill-opacity:1;fill-rule:nonzero;stroke:none"
       id="path92"
       inkscape:connector-curvature="0" /><path
       d="m 699.08918,423.06269 c 7.08688,-0.0292 14.17375,-0.0146 21.26063,0 -0.80201,-22.93757 -3.1643,-45.96264 -9.18669,-68.15653 -6.85357,1.64778 -13.60506,3.63094 -20.44404,5.32245 5.19121,20.54612 7.65558,41.67552 8.3701,62.83408"
       style="fill:#343132;fill-opacity:1;fill-rule:nonzero;stroke:none"
       id="path94"
       inkscape:connector-curvature="0" /><path
       d="m 725.68685,422.84396 c 7.01396,0.36455 14.02793,0.18957 21.05648,0.18957 0,-25.34361 -3.44136,-50.6289 -9.71164,-75.1705 -6.82441,1.83734 -13.64881,3.64551 -20.45863,5.46827 5.62867,22.74801 8.57425,46.09388 9.11379,69.51266"
       style="fill:#343132;fill-opacity:1;fill-rule:nonzero;stroke:none"
       id="path96"
       inkscape:connector-curvature="0" /><path
       d="m 752.38659,422.8148 c 6.97022,0.39371 13.96961,0.33539 20.969,0.0292 0.39371,-27.63299 -4.19964,-55.04726 -10.20744,-81.93657 -6.97023,1.85192 -13.94045,3.6601 -20.91067,5.51202 6.44527,24.93531 9.6679,50.65806 10.14911,76.39539"
       style="fill:#343132;fill-opacity:1;fill-rule:nonzero;stroke:none"
       id="path98"
       inkscape:connector-curvature="0" /><path
       d="m 778.88219,422.78563 c 7.08687,0.4083 14.20292,0.23332 21.30438,0.26248 0.14582,-29.98071 -4.36004,-59.83017 -11.40317,-88.92138 -6.89731,1.61861 -13.72171,3.47053 -20.48779,5.48286 6.43069,27.23928 10.70323,55.12017 10.58658,83.17604"
       style="fill:#343132;fill-opacity:1;fill-rule:nonzero;stroke:none"
       id="path100"
       inkscape:connector-curvature="0" /><path
       d="m 805.7715,422.84396 c 6.9848,0.32081 13.99877,0.20415 20.99816,0.20415 0.30622,-30.54941 -4.01007,-61.01132 -10.98029,-90.70039 -0.83118,-1.42904 -0.2479,-4.37461 -2.33313,-4.69542 -6.48901,1.12282 -12.71555,3.4122 -19.1754,4.66626 0.99158,7.45143 3.12056,14.68413 4.52043,22.04807 4.40378,22.55844 6.72233,45.51059 6.97023,68.47733"
       style="fill:#343132;fill-opacity:1;fill-rule:nonzero;stroke:none"
       id="path102"
       inkscape:connector-curvature="0" /><path
       d="m 832.35458,422.55232 c 5.67242,0.65619 11.38859,0.52495 17.10476,0.52495 -0.48121,-12.74471 1.10823,-25.53317 -0.68536,-38.1904 -2.08523,-21.5377 -5.92032,-42.88583 -11.41775,-63.79649 -5.90573,1.39987 -11.76772,2.96015 -17.52763,4.79749 7.94722,31.58474 12.351,64.07356 12.52598,96.66445"
       style="fill:#343132;fill-opacity:1;fill-rule:nonzero;stroke:none"
       id="path104"
       inkscape:connector-curvature="0" /><path
       d="m 204.84498,409.4868 c 6.02238,1.4582 10.87821,8.47217 17.45472,5.3662 5.77449,-1.53112 11.54898,-3.14973 17.39639,-4.3892 1.82276,-10.8928 3.0039,-21.90225 5.687,-32.64923 -11.35942,-3.07681 -22.71884,-6.24112 -34.16576,-9.05545 -3.26638,13.35716 -5.62867,26.9768 -6.37235,40.72768"
       style="fill:#343132;fill-opacity:1;fill-rule:nonzero;stroke:none"
       id="path106"
       inkscape:connector-curvature="0" /><path
       d="m 630.99098,409.73469 c 7.08687,3.06224 15.29657,4.69543 23.03964,6.10989 4.12673,-1.5457 8.0493,-3.63094 11.91354,-5.7745 -0.33538,-13.94044 -3.04765,-27.72049 -6.35777,-41.22347 -11.41775,2.53728 -22.60219,6.03697 -33.96161,8.80756 2.23105,10.61574 3.63093,21.37729 5.3662,32.08052"
       style="fill:#343132;fill-opacity:1;fill-rule:nonzero;stroke:none"
       id="path108"
       inkscape:connector-curvature="0" /><path
       d="m 212.77761,363.46583 c 11.40317,2.90183 22.68968,6.18279 34.12201,8.96797 3.86425,-14.84454 10.83447,-28.56625 16.9881,-42.52128 -10.10536,-5.687 -20.02116,-11.72397 -30.15569,-17.35265 -8.85131,16.11318 -16.22983,33.11585 -20.95442,50.90596"
       style="fill:#343132;fill-opacity:1;fill-rule:nonzero;stroke:none"
       id="path110"
       inkscape:connector-curvature="0" /><path
       d="m 623.77286,372.1859 c 11.65106,-2.17273 22.86466,-6.03697 34.39907,-8.69091 -4.92874,-17.74636 -12.08853,-34.88027 -21.10024,-50.9497 -10.2366,5.96406 -20.66277,11.63648 -30.70981,17.90677 7.39311,13.16759 13.29884,27.21011 17.41098,41.73384"
       style="fill:#343132;fill-opacity:1;fill-rule:nonzero;stroke:none"
       id="path112"
       inkscape:connector-curvature="0" /><path
       d="m 186.80697,356.33521 c 6.82441,1.95399 13.64881,4.01006 20.63361,5.38077 5.16205,-18.09633 12.7593,-35.37606 21.40646,-52.05794 -6.10988,-3.48511 -12.1906,-7.01396 -18.25673,-10.58657 -10.03246,18.14008 -17.99426,37.37381 -23.78334,57.26374"
       style="fill:#343132;fill-opacity:1;fill-rule:nonzero;stroke:none"
       id="path114"
       inkscape:connector-curvature="0" /><path
       d="m 663.46521,361.77431 c 6.97023,-1.53111 13.83837,-3.47053 20.70652,-5.4391 -5.90573,-19.8316 -13.95502,-39.007 -23.78333,-57.20541 -6.10988,3.52886 -12.30726,6.94106 -18.38797,10.52824 8.64716,16.69646 16.28815,33.99078 21.46478,52.11627"
       style="fill:#343132;fill-opacity:1;fill-rule:nonzero;stroke:none"
       id="path116"
       inkscape:connector-curvature="0" /><path
       d="m 161.09881,349.67121 c 6.89731,1.7061 13.76546,3.60176 20.63361,5.4391 5.24954,-19.72952 13.41549,-38.52579 22.92299,-56.54921 1.53112,-2.02691 -1.03533,-3.33929 -2.42062,-4.25796 -4.7975,-3.0039 -9.82831,-5.59951 -14.78621,-8.35552 -11.27193,20.09407 -20.23989,41.50053 -26.34977,63.72359"
       style="fill:#343132;fill-opacity:1;fill-rule:nonzero;stroke:none"
       id="path118"
       inkscape:connector-curvature="0" /><path
       d="m 689.20254,355.00824 c 6.92648,-1.7061 13.79463,-3.67468 20.70652,-5.40994 -6.37236,-22.13557 -15.29657,-43.51286 -26.34977,-63.72359 -5.89115,3.4122 -12.13227,6.2557 -17.65887,10.25119 0,2.65393 1.42904,4.97248 2.5956,7.26186 8.88048,16.3319 15.6028,33.77204 20.70652,51.62048"
       style="fill:#343132;fill-opacity:1;fill-rule:nonzero;stroke:none"
       id="path120"
       inkscape:connector-curvature="0" /><path
       d="m 135.37606,342.42392 c 6.72233,2.24564 13.63422,3.86425 20.47321,5.65784 6.40152,-22.68968 15.50072,-44.60651 27.07888,-65.12346 -6.29945,-3.29554 -12.29268,-7.17437 -18.73795,-10.20744 -12.24892,22.01891 -22.12097,45.37936 -28.81414,69.67306"
       style="fill:#343132;fill-opacity:1;fill-rule:nonzero;stroke:none"
       id="path122"
       inkscape:connector-curvature="0" /><path
       d="m 687.90474,283.23536 c 11.92812,20.26906 20.50237,42.33171 27.16637,64.83182 6.83898,-1.73526 13.61964,-3.6601 20.47321,-5.30787 -6.35778,-24.57076 -16.43398,-48.14995 -28.79956,-70.25634 -6.5036,3.1643 -12.54057,7.20353 -18.84002,10.73239"
       style="fill:#343132;fill-opacity:1;fill-rule:nonzero;stroke:none"
       id="path124"
       inkscape:connector-curvature="0" /><path
       d="m 109.72623,335.62869 c 6.62025,2.24563 13.44465,3.733 20.21073,5.42452 7.23269,-24.73117 17.01725,-48.73323 29.6599,-71.20418 -5.86199,-3.90799 -12.16144,-7.15979 -18.31507,-10.58657 -13.67796,23.9729 -24.55618,49.66648 -31.55556,76.36623"
       style="fill:#343132;fill-opacity:1;fill-rule:nonzero;stroke:none"
       id="path126"
       inkscape:connector-curvature="0" /><path
       d="m 711.06104,269.70321 c 12.93429,22.39804 22.41262,46.57509 29.9078,71.27709 6.83898,-1.42904 13.56131,-3.36845 20.29822,-5.29329 -7.17437,-26.69974 -18.06716,-52.33499 -31.57015,-76.43913 -6.27028,3.36845 -12.39475,7.02855 -18.63587,10.45533"
       style="fill:#343132;fill-opacity:1;fill-rule:nonzero;stroke:none"
       id="path128"
       inkscape:connector-curvature="0" /><path
       d="m 84.3097,329.0376 c 6.649417,1.77901 13.284252,3.5726 19.97742,5.19121 7.37852,-27.10804 18.56296,-53.07868 32.06594,-77.66403 -5.71617,-4.06839 -12.10311,-7.0723 -18.05259,-10.77614 -13.66338,23.30213 -24.045808,48.44159 -32.124267,74.17892 -0.860342,2.97474 -1.41446,6.02239 -1.866503,9.07004"
       style="fill:#343132;fill-opacity:1;fill-rule:nonzero;stroke:none"
       id="path130"
       inkscape:connector-curvature="0" /><path
       d="m 766.63326,334.33088 c 6.69316,-1.83734 13.40091,-3.61635 20.12324,-5.40994 -6.95564,-29.22244 -19.52538,-56.78252 -33.90328,-83.05939 -6.24112,3.32471 -12.45308,6.72233 -18.35881,10.60116 13.50298,24.67283 24.702,50.71639 32.13885,77.86817"
       style="fill:#343132;fill-opacity:1;fill-rule:nonzero;stroke:none"
       id="path132"
       inkscape:connector-curvature="0" /><path
       d="m 792.58932,327.40441 c 6.70774,-1.80818 13.40091,-3.67468 20.13782,-5.35162 -7.90348,-31.366 -21.02733,-61.1863 -36.70304,-89.40258 -6.32861,3.03307 -12.26351,6.76607 -18.31506,10.26577 14.4654,26.87472 26.55392,55.07642 34.88028,84.48843"
       style="fill:#343132;fill-opacity:1;fill-rule:nonzero;stroke:none"
       id="path134"
       inkscape:connector-curvature="0" /><path
       d="m 58.397388,322.11112 c 6.663998,1.60403 13.240505,3.55802 19.904505,5.20579 7.349356,-25.24153 16.81311,-49.92895 29.149527,-73.18733 2.02691,-3.70385 4.15589,-7.36394 5.73075,-11.28652 -6.0078,-3.47052 -12.07394,-6.8244 -18.067167,-10.30951 -14.567474,25.02281 -25.839403,51.89754 -34.428232,79.53053 -1.035326,3.28097 -1.691518,6.664 -2.289383,10.04704"
       style="fill:#343132;fill-opacity:1;fill-rule:nonzero;stroke:none"
       id="path136"
       inkscape:connector-curvature="0" /><path
       d="m 236.37138,307.87903 c 10.30951,5.75992 20.32739,12.00104 30.78272,17.49847 6.63484,-10.67406 14.08627,-20.83776 22.45637,-30.2286 -6.83899,-9.90122 -13.15302,-20.1524 -20.16699,-29.92238 -13.03635,12.52599 -23.50627,27.39968 -33.0721,42.65251"
       style="fill:#343132;fill-opacity:1;fill-rule:nonzero;stroke:none"
       id="path138"
       inkscape:connector-curvature="0" /><path
       d="m 603.7517,325.30459 c 10.54282,-5.33703 20.40029,-11.88437 30.7973,-17.45472 -9.56583,-15.15076 -20.19615,-29.71823 -32.73672,-42.55044 -5.86198,9.42001 -11.46149,19.015 -17.27973,28.46417 -0.49579,1.23948 -2.23106,2.90183 -0.87493,4.14131 7.29103,8.67632 13.82379,17.96509 20.09408,27.39968"
       style="fill:#343132;fill-opacity:1;fill-rule:nonzero;stroke:none"
       id="path140"
       inkscape:connector-curvature="0" /><path
       d="m 34.964025,315.89916 c 5.949478,1.45821 11.855211,3.13515 17.8776,4.31629 6.459851,-24.42494 15.806947,-48.03329 26.918473,-70.6938 3.295545,-6.73691 7.320192,-13.10927 10.324096,-20.00658 -5.220376,-3.0914 -10.440752,-6.21196 -15.996516,-8.69091 -16.652705,30.02445 -30.345256,61.8425 -39.123653,95.075"
       style="fill:#343132;fill-opacity:1;fill-rule:nonzero;stroke:none"
       id="path142"
       inkscape:connector-curvature="0" /><path
       d="m 780.58829,229.52965 c 15.96735,28.71207 28.97454,59.13023 37.56337,90.88995 5.96406,-1.47279 11.89896,-3.09139 17.86302,-4.59335 -9.12837,-33.11584 -22.41262,-65.05055 -39.3278,-94.94376 -5.57035,2.49353 -10.74698,5.74533 -16.09859,8.64716"
       style="fill:#343132;fill-opacity:1;fill-rule:nonzero;stroke:none"
       id="path144"
       inkscape:connector-curvature="0" /><path
       d="m 213.65254,294.72602 c 5.89115,3.20805 11.41775,7.13062 17.6297,9.72623 2.12898,-1.15198 3.13515,-3.60177 4.52044,-5.49743 8.51592,-13.94045 19.07333,-26.52476 30.24318,-38.39456 -4.37461,-5.19121 -8.99712,-10.45533 -14.65496,-14.29041 l -0.96242,0.10207 c -10.81988,10.35326 -19.83159,22.4272 -28.47875,34.58864 -3.13514,4.36003 -5.87657,8.98255 -8.29719,13.76546"
       style="fill:#343132;fill-opacity:1;fill-rule:nonzero;stroke:none"
       id="path146"
       inkscape:connector-curvature="0" /><path
       d="m 638.83612,304.88971 c 6.38694,-2.94557 12.30726,-6.78065 18.43172,-10.20744 -8.41385,-15.41323 -19.40872,-29.19327 -30.92854,-42.36087 -2.1144,-2.40604 -4.53502,-4.50585 -6.98481,-6.54734 -5.04539,4.76833 -9.90121,9.71165 -14.71329,14.68413 13.06552,13.41549 24.5416,28.39126 34.19492,44.43152"
       style="fill:#343132;fill-opacity:1;fill-rule:nonzero;stroke:none"
       id="path148"
       inkscape:connector-curvature="0" /><path
       d="m 190.4379,281.38344 c 6.12447,3.45595 12.20519,6.9848 18.3734,10.35326 9.71164,-16.66729 21.65435,-31.92012 34.63238,-46.15221 0.90409,-1.57486 3.5726,-2.77059 2.78517,-4.87041 -4.06839,-5.29328 -9.24502,-9.59499 -13.83837,-14.40707 -15.98193,16.66729 -30.69523,34.83653 -41.95258,55.07643"
       style="fill:#343132;fill-opacity:1;fill-rule:nonzero;stroke:none"
       id="path150"
       inkscape:connector-curvature="0" /><path
       d="m 662.03617,291.69295 c 6.2557,-3.23721 12.32184,-6.8244 18.41714,-10.35326 -11.28651,-20.19615 -25.9269,-38.30706 -41.89425,-54.97435 -5.03081,5.08914 -10.03245,10.20744 -15.20908,15.15076 14.93202,15.01952 27.74965,32.03677 38.68619,50.17685"
       style="fill:#343132;fill-opacity:1;fill-rule:nonzero;stroke:none"
       id="path152"
       inkscape:connector-curvature="0" /><path
       d="m 565.82377,279.92523 c 10.06162,-6.64941 20.05032,-13.41549 30.24318,-19.87534 -12.38016,-13.26967 -27.50176,-23.55002 -42.65251,-33.36374 -5.5266,10.46991 -12.10311,20.32738 -17.45472,30.88479 10.30951,6.95564 20.69193,13.91128 29.86405,22.35429"
       style="fill:#343132;fill-opacity:1;fill-rule:nonzero;stroke:none"
       id="path154"
       inkscape:connector-curvature="0" /><path
       d="m 167.23785,267.79296 c 6.05156,3.64552 12.16144,7.18896 18.2859,10.70323 12.20518,-20.22531 26.656,-39.07991 43.10456,-56.03884 -5.08914,-4.87041 -9.9158,-10.01787 -15.07785,-14.81537 -18.05258,17.84844 -33.43665,38.30706 -46.31261,60.15098"
       style="fill:#343132;fill-opacity:1;fill-rule:nonzero;stroke:none"
       id="path156"
       inkscape:connector-curvature="0" /><path
       d="m 274.82426,260.07905 c 10.52825,5.89116 20.58986,12.5989 31.19102,18.35881 9.43459,-7.24728 18.69419,-14.81537 29.01829,-20.85234 -5.58493,-10.42617 -11.91354,-20.44404 -17.52763,-30.85563 -15.23825,9.68249 -30.35984,20.00658 -42.68168,33.34916"
       style="fill:#343132;fill-opacity:1;fill-rule:nonzero;stroke:none"
       id="path158"
       inkscape:connector-curvature="0" /><path
       d="m 685.32372,278.37953 c 6.18279,-3.39761 12.2635,-7.01396 18.41713,-10.48449 -12.32184,-22.20847 -28.62457,-41.90883 -45.84598,-60.45721 -5.39536,4.89957 -10.52825,10.0762 -15.57364,15.32574 16.63813,16.60897 30.82647,35.53647 43.00249,55.61596"
       style="fill:#343132;fill-opacity:1;fill-rule:nonzero;stroke:none"
       id="path160"
       inkscape:connector-curvature="0" /><path
       d="m 144.05239,254.58162 c 5.97864,3.36845 11.81146,6.97022 17.92134,10.0762 3.52886,-3.89341 6.0953,-8.51592 8.95338,-12.90512 9.24503,-14.20292 19.71494,-27.61841 31.27851,-39.99858 2.55186,-2.61019 5.01623,-5.32245 7.14521,-8.28261 -4.75375,-5.08913 -9.76998,-9.91579 -14.66955,-14.85911 -19.51079,19.78785 -36.76136,41.87966 -50.62889,65.96922"
       style="fill:#343132;fill-opacity:1;fill-rule:nonzero;stroke:none"
       id="path162"
       inkscape:connector-curvature="0" /><path
       d="m 681.22616,226.08828 c 9.9158,12.16144 18.79627,25.13947 26.88931,38.58412 6.57651,-2.77059 12.49682,-6.76607 18.79627,-10.09078 -14.1446,-23.88541 -31.00145,-46.26886 -50.73097,-65.8234 -4.85583,4.98706 -9.88664,9.79914 -14.61122,14.91744 6.35777,7.641 13.4884,14.61122 19.65661,22.41262"
       style="fill:#343132;fill-opacity:1;fill-rule:nonzero;stroke:none"
       id="path164"
       inkscape:connector-curvature="0" /><path
       d="m 255.3718,241.20987 c 4.30171,5.75992 9.74081,10.4845 14.91744,15.42782 13.09469,-13.328 28.17253,-24.59993 44.19821,-34.16576 -2.97474,-6.34319 -6.79523,-12.23434 -10.00329,-18.46088 -2.37687,1.15198 -4.75375,2.31855 -6.99938,3.71842 -14.99036,9.87206 -29.38285,20.79402 -42.11298,33.4804"
       style="fill:#343132;fill-opacity:1;fill-rule:nonzero;stroke:none"
       id="path166"
       inkscape:connector-curvature="0" /><path
       d="m 556.38918,222.38444 c 16.15692,9.6679 30.94312,21.43562 44.67942,34.28241 4.76833,-5.03081 9.81372,-9.78456 14.56747,-14.81536 -14.26125,-15.00494 -31.03061,-27.66216 -49.03945,-37.82586 -3.47053,6.08072 -7.18896,12.0302 -10.20744,18.35881"
       style="fill:#343132;fill-opacity:1;fill-rule:nonzero;stroke:none"
       id="path168"
       inkscape:connector-curvature="0" /><path
       d="m 489.06383,237.4477 c 14.61122,4.02465 28.40584,10.38243 41.89424,17.17767 6.31403,-9.94497 11.94271,-20.34197 17.70262,-30.65149 -16.18608,-8.57424 -33.01378,-16.12775 -50.74556,-20.86692 -2.78517,11.49066 -6.5765,22.71885 -8.8513,34.34074"
       style="fill:#343132;fill-opacity:1;fill-rule:nonzero;stroke:none"
       id="path170"
       inkscape:connector-curvature="0" /><path
       d="m 339.4811,254.23165 c 13.8967,-6.00781 27.47259,-12.96345 42.20047,-16.87144 -2.07065,-11.59273 -6.03697,-22.73342 -8.57425,-34.22408 -17.84844,4.71 -34.8657,12.1906 -51.05178,20.99816 5.87657,10.00329 11.50524,20.12323 17.42556,30.09736"
       style="fill:#343132;fill-opacity:1;fill-rule:nonzero;stroke:none"
       id="path172"
       inkscape:connector-curvature="0" /><path
       d="m 120.82317,240.99114 c 6.08072,3.70385 12.26351,7.21812 18.47546,10.67407 14.42166,-24.33745 32.08053,-46.63342 51.51841,-67.13579 -2.46437,-1.69151 -4.34545,-6.03697 -7.91806,-4.82666 -5.23496,1.50195 -10.79072,1.34155 -15.80695,-0.87492 -17.6297,18.95667 -32.89711,40.02774 -46.26886,62.1633"
       style="fill:#343132;fill-opacity:1;fill-rule:nonzero;stroke:none"
       id="path174"
       inkscape:connector-curvature="0" /><path
       d="m 731.51967,251.56313 c 6.0953,-3.09139 11.86979,-6.73691 17.8776,-9.9887 -1.23948,-3.04765 -2.61019,-6.03698 -4.3892,-8.80757 -12.14685,-19.015 -25.69358,-37.19882 -41.10682,-53.70571 -5.78907,2.05607 -12.14685,2.3623 -17.86301,-0.0875 -1.954,1.92483 -3.89341,3.84966 -5.84741,5.77449 19.48163,20.32739 36.87802,42.63794 51.32884,66.81498"
       style="fill:#343132;fill-opacity:1;fill-rule:nonzero;stroke:none"
       id="path176"
       inkscape:connector-curvature="0" /><path
       d="m 97.637699,227.70689 c 6.168211,3.60177 12.351001,7.15979 18.562961,10.67407 13.53215,-22.55844 29.0912,-43.93574 47.01255,-63.21322 -3.26638,-5.92031 -2.09982,-12.46765 -0.69994,-18.70877 -1.72068,-2.01233 -3.71843,-3.77676 -5.59951,-5.65784 -22.86467,23.05423 -42.5796,49.09778 -59.276061,76.90576"
       style="fill:#343132;fill-opacity:1;fill-rule:nonzero;stroke:none"
       id="path178"
       inkscape:connector-curvature="0" /><path
       d="m 569.64427,198.99482 c 17.89218,11.34484 35.11359,23.85625 50.1331,38.87576 5.08914,-5.00164 10.09079,-10.11994 15.13618,-15.16533 -16.56522,-15.89445 -34.63238,-30.41817 -54.62438,-41.77759 -4.09756,5.687 -7.27645,11.9427 -10.6449,18.06716"
       style="fill:#343132;fill-opacity:1;fill-rule:nonzero;stroke:none"
       id="path180"
       inkscape:connector-curvature="0" /><path
       d="m 707.75092,175.124 c 17.6297,19.49621 33.61164,40.52353 46.83756,63.27154 5.92032,-3.67468 12.5989,-6.28487 17.8776,-10.92196 -2.66852,-6.28487 -6.8244,-11.76772 -10.49908,-17.48389 -13.98419,-21.20231 -30.03903,-41.06307 -47.97496,-59.05732 -2.02691,2.09981 -4.05381,4.18505 -6.05156,6.28486 2.66852,5.71617 2.34772,12.20518 -0.18956,17.90677"
       style="fill:#343132;fill-opacity:1;fill-rule:nonzero;stroke:none"
       id="path182"
       inkscape:connector-curvature="0" /><path
       d="m 236.1964,222.67608 c 4.94331,5.05998 9.60957,10.45534 15.31115,14.69871 15.10701,-14.45081 31.67223,-27.47259 49.72481,-38.05916 -3.39761,-6.22654 -6.34319,-12.77388 -10.86363,-18.31506 -19.72952,11.51982 -37.97167,25.57692 -54.17233,41.67551"
       style="fill:#343132;fill-opacity:1;fill-rule:nonzero;stroke:none"
       id="path184"
       inkscape:connector-curvature="0" /><path
       d="m 387.64563,187.41667 c -6.27029,16.08401 -3.48511,34.96777 6.53276,48.93738 0.30622,-7.32019 -0.0146,-14.85911 2.49353,-21.8585 5.64326,-15.77779 21.6981,-27.48718 38.61328,-26.99139 16.63813,-0.23331 32.69297,10.95113 38.17583,26.67058 2.78517,7.17437 2.756,14.96119 2.21647,22.50012 9.69707,-12.52599 12.71555,-29.7474 8.39926,-44.9419 -3.47053,-11.88438 -11.33025,-22.47095 -21.8585,-29.04746 -10.63032,-6.76607 -23.88541,-9.28877 -36.25099,-6.95564 -17.16308,2.88725 -32.02219,15.55906 -38.32164,31.68681"
       style="fill:#343132;fill-opacity:1;fill-rule:nonzero;stroke:none"
       id="path186"
       inkscape:connector-curvature="0" /><path
       d="m 77.383223,215.92459 c 5.205794,3.14972 10.484498,6.15363 15.704874,9.25961 16.492313,-28.4496 36.994683,-54.36191 59.684353,-78.08691 -3.80591,-4.69543 -8.44301,-8.67633 -12.65722,-13.02178 -24.27912,24.46869 -45.583509,51.94128 -62.732007,81.84908"
       style="fill:#343132;fill-opacity:1;fill-rule:nonzero;stroke:none"
       id="path188"
       inkscape:connector-curvature="0" /><path
       d="m 717.91461,147.15561 c 22.92299,23.50628 43.25038,49.57899 59.84476,77.92651 5.2787,-2.98932 10.54282,-5.97864 15.73404,-9.11378 -17.03185,-29.96613 -38.45289,-57.38039 -62.71743,-81.81992 -4.25796,4.36004 -8.57425,8.67632 -12.86137,13.00719"
       style="fill:#343132;fill-opacity:1;fill-rule:nonzero;stroke:none"
       id="path190"
       inkscape:connector-curvature="0" /><path
       d="m 232.24466,218.78267 c 16.94435,-16.27357 35.56563,-30.78272 55.79094,-42.76917 -3.47052,-6.16821 -7.10146,-12.21976 -10.49908,-18.43172 -20.23989,11.4615 -38.61328,25.95606 -55.73261,41.64636 -1.48737,1.38529 -2.96016,2.8435 -3.79134,4.73916 3.95174,5.64326 9.595,9.78456 14.23209,14.81537"
       style="fill:#343132;fill-opacity:1;fill-rule:nonzero;stroke:none"
       id="path192"
       inkscape:connector-curvature="0" /><path
       d="m 319.3287,219.05973 c 16.84227,-8.22428 33.90328,-16.21524 52.01419,-21.2898 -1.57486,-6.92648 -3.51428,-13.75088 -5.3662,-20.60444 -19.87534,5.74533 -39.05074,13.78004 -57.17624,23.73958 3.35387,6.13905 6.79524,12.23435 10.52825,18.15466"
       style="fill:#343132;fill-opacity:1;fill-rule:nonzero;stroke:none"
       id="path194"
       inkscape:connector-curvature="0" /><path
       d="m 499.54832,197.74077 c 18.05259,5.33703 35.40524,12.78846 52.05794,21.55227 3.52886,-6.1682 7.13063,-12.29267 10.57199,-18.50462 -18.34422,-9.55125 -37.33006,-18.06717 -57.30748,-23.57919 -1.85192,6.8244 -3.79133,13.61964 -5.32245,20.53154"
       style="fill:#343132;fill-opacity:1;fill-rule:nonzero;stroke:none"
       id="path196"
       inkscape:connector-curvature="0" /><path
       d="m 582.89936,175.75103 c 19.99199,12.43849 38.90492,26.65599 55.76178,43.13372 5.05997,-5.05998 10.26576,-9.98871 15.22366,-15.15076 -18.30048,-17.64429 -38.29248,-33.75746 -60.48636,-46.2397 -3.48512,6.0953 -6.98481,12.1906 -10.49908,18.25674"
       style="fill:#343132;fill-opacity:1;fill-rule:nonzero;stroke:none"
       id="path198"
       inkscape:connector-curvature="0" /><path
       d="m 657.34075,199.38854 c 5.90573,-3.74759 10.04704,-9.71165 15.1945,-14.37791 -19.62744,-19.64203 -41.92341,-36.55721 -65.8234,-50.67264 -3.33929,6.29945 -7.30561,12.23434 -10.11994,18.78169 19.20456,11.51982 37.38839,24.81865 53.73487,40.15898 2.23106,2.14356 4.37462,4.44752 7.01397,6.10988"
       style="fill:#343132;fill-opacity:1;fill-rule:nonzero;stroke:none"
       id="path200"
       inkscape:connector-curvature="0" /><path
       d="m 198.38513,184.90856 c 4.97248,4.98706 9.74081,10.17827 15.09242,14.75704 18.66503,-17.46931 38.61329,-33.74288 60.8655,-46.45843 -2.81433,-6.664 -6.664,-12.80305 -10.5574,-18.88376 -23.53544,14.43623 -45.86057,31.04519 -65.40052,50.58515"
       style="fill:#343132;fill-opacity:1;fill-rule:nonzero;stroke:none"
       id="path202"
       inkscape:connector-curvature="0" /><path
       d="m 305.82571,195.81593 c 2.74143,-1.0499 5.43911,-2.23105 8.06388,-3.5726 16.12775,-8.45759 33.10127,-15.38407 50.68723,-20.10865 -1.7936,-6.9119 -3.73301,-13.79463 -5.27871,-20.76485 -22.19389,6.24112 -43.60035,15.16534 -63.709,26.39352 3.19347,6.13905 6.60567,12.16143 10.2366,18.05258"
       style="fill:#343132;fill-opacity:1;fill-rule:nonzero;stroke:none"
       id="path204"
       inkscape:connector-curvature="0" /><path
       d="m 555.79131,191.54339 c 3.00391,1.61861 6.08072,3.14973 9.25961,4.40378 3.45595,-5.99322 7.20353,-11.84063 10.19286,-18.09633 -19.94826,-11.40317 -41.45679,-20.18156 -63.57777,-26.42268 -1.7061,6.89731 -3.60177,13.73629 -5.42452,20.60444 17.09017,4.89957 33.77204,11.27193 49.54982,19.51079"
       style="fill:#343132;fill-opacity:1;fill-rule:nonzero;stroke:none"
       id="path206"
       inkscape:connector-curvature="0" /><path
       d="m 371.37205,175.76561 c 1.21031,5.32245 2.44979,10.68865 4.43295,15.77778 1.44362,-6.10988 3.19347,-12.16143 5.51202,-18.00884 -3.31013,0.75827 -6.63484,1.47279 -9.94497,2.23106"
       style="fill:#343132;fill-opacity:1;fill-rule:nonzero;stroke:none"
       id="path208"
       inkscape:connector-curvature="0" /><path
       d="m 489.25339,173.37415 c 2.56644,5.9349 4.34546,12.16144 5.99323,18.40256 1.64777,-5.24954 2.94557,-10.60116 4.3017,-15.93819 -3.44136,-0.80201 -6.86814,-1.63319 -10.29493,-2.46437"
       style="fill:#343132;fill-opacity:1;fill-rule:nonzero;stroke:none"
       id="path210"
       inkscape:connector-curvature="0" /><path
       d="m 194.14175,181.07348 c 20.45862,-19.27748 42.62335,-36.84886 66.84414,-51.1976 -2.8435,-6.56193 -6.70774,-12.5989 -10.49908,-18.65045 -21.65435,13.19676 -42.59418,27.93922 -60.89466,45.55434 2.1873,5.96406 1.57486,12.26351 -0.45205,18.15466 1.1374,2.40604 3.38304,4.08298 5.00165,6.13905"
       style="fill:#343132;fill-opacity:1;fill-rule:nonzero;stroke:none"
       id="path212"
       inkscape:connector-curvature="0" /><path
       d="m 609.7595,129.6134 c 24.01665,14.78621 46.61883,31.89096 66.81498,51.59131 1.82276,-2.01232 3.73301,-3.93715 5.55577,-5.96406 -3.12056,-5.86198 -2.85809,-12.58431 -0.74369,-18.72336 -17.23599,-15.66112 -35.87186,-29.77655 -55.70345,-41.98173 -1.66236,-0.977 -3.39762,-1.83734 -5.19121,-2.47895 -4.78292,5.00164 -7.29103,11.65106 -10.7324,17.55679"
       style="fill:#343132;fill-opacity:1;fill-rule:nonzero;stroke:none"
       id="path214"
       inkscape:connector-curvature="0" /><path
       d="m 282.47984,154.46122 c 2.8435,6.57651 6.57651,12.71556 10.38242,18.76711 20.37114,-11.59273 42.18589,-20.58986 64.71517,-27.02055 -1.63319,-6.85357 -3.52886,-13.6488 -5.30787,-20.47321 -24.3812,6.5036 -47.6979,16.5798 -69.78972,28.72665"
       style="fill:#343132;fill-opacity:1;fill-rule:nonzero;stroke:none"
       id="path216"
       inkscape:connector-curvature="0" /><path
       d="m 513.27004,146.20778 c 22.52928,6.54734 44.50443,15.282 64.78807,27.13721 3.60177,-6.27029 7.50976,-12.38017 10.54283,-18.97126 -21.98974,-12.38016 -45.48143,-22.09181 -69.81888,-28.75581 -1.96858,6.8244 -3.80592,13.69255 -5.51202,20.58986"
       style="fill:#343132;fill-opacity:1;fill-rule:nonzero;stroke:none"
       id="path218"
       inkscape:connector-curvature="0" /><path
       d="m 369.82636,170.5744 c 6.32861,-1.93942 14.3779,-1.32697 18.62128,-7.30561 8.48676,-10.8928 20.73568,-18.4463 34.19492,-21.46479 -19.61286,0.0437 -39.13824,3.49969 -58.10949,8.28261 1.58944,6.88273 3.49969,13.67797 5.29329,20.48779"
       style="fill:#343132;fill-opacity:1;fill-rule:nonzero;stroke:none"
       id="path220"
       inkscape:connector-curvature="0" /><path
       d="m 485.73912,166.68099 c 4.88499,2.07065 10.28035,2.62477 15.42781,3.83508 1.10824,-6.86815 4.5496,-13.63422 4.60793,-20.50237 -19.10249,-5.24954 -38.9195,-7.69933 -58.67819,-8.74924 9.55125,2.62477 18.92751,6.5036 26.53934,12.96345 4.68084,3.51428 7.78682,8.58883 12.10311,12.45308"
       style="fill:#343132;fill-opacity:1;fill-rule:nonzero;stroke:none"
       id="path222"
       inkscape:connector-curvature="0" /><path
       d="m 166.24627,152.75512 c 3.20806,-0.24789 6.15363,-1.8665 9.36168,-2.23105 3.45595,0.14582 6.64942,1.67694 10.01788,2.30396 19.16082,-17.42555 39.92567,-33.14501 62.38203,-46.09387 -3.74759,-5.90573 -6.22654,-12.642634 -10.87821,-17.93592 -4.73917,1.808175 -8.85131,4.855824 -13.10927,7.509749 -22.64593,14.800781 -44.27112,31.468071 -63.11114,50.920531 1.5457,2.05607 3.31013,3.95174 5.33703,5.5266"
       style="fill:#343132;fill-opacity:1;fill-rule:nonzero;stroke:none"
       id="path224"
       inkscape:connector-curvature="0" /><path
       d="m 685.13415,152.91553 c 6.29945,-2.75601 13.28425,-2.77059 19.52537,0.1604 1.8665,-1.96858 3.79134,-3.90799 5.70159,-5.87657 -23.03965,-22.55844 -48.58741,-42.81291 -76.68704,-58.707343 -4.1413,5.730748 -7.33477,12.044773 -10.79072,18.183813 22.2668,13.19676 43.38162,28.46417 62.2508,46.2397"
       style="fill:#343132;fill-opacity:1;fill-rule:nonzero;stroke:none"
       id="path226"
       inkscape:connector-curvature="0" /><path
       d="m 268.84562,131.61114 c 3.35387,6.19738 6.75149,12.38017 10.44075,18.37339 22.6751,-12.351 46.50218,-22.61677 71.37916,-29.63073 -1.7061,-6.79524 -3.5726,-13.56131 -5.32245,-20.34197 -26.75807,7.08688 -52.43707,17.96509 -76.49746,31.59931"
       style="fill:#343132;fill-opacity:1;fill-rule:nonzero;stroke:none"
       id="path228"
       inkscape:connector-curvature="0" /><path
       d="m 520.47357,120.6746 c 24.83325,6.54734 48.5145,16.9881 71.00003,29.28077 3.89341,-5.90573 7.08688,-12.21976 10.61574,-18.35881 -24.08956,-13.53215 -49.72481,-24.39578 -76.40997,-31.643057 -1.96858,6.838987 -4.0684,13.677967 -5.2058,20.721097"
       style="fill:#343132;fill-opacity:1;fill-rule:nonzero;stroke:none"
       id="path230"
       inkscape:connector-curvature="0" /><path
       d="m 362.85613,144.69125 c 22.8355,-5.57035 46.26887,-8.86589 69.78972,-8.95339 0,-7.04313 0.0146,-14.10084 0.0292,-21.15856 -25.32903,-0.0875 -50.74556,3.22264 -75.18508,9.84289 1.76443,6.76607 3.67467,13.4884 5.36619,20.26906"
       style="fill:#343132;fill-opacity:1;fill-rule:nonzero;stroke:none"
       id="path232"
       inkscape:connector-curvature="0" /><path
       d="m 438.09954,135.89827 c 23.55002,-0.21873 47.02713,3.12056 69.81888,8.92422 1.86651,-6.86815 3.87883,-13.72172 5.07456,-20.75027 -24.48327,-6.10988 -49.6519,-9.76998 -74.9226,-9.46375 -0.10208,7.10146 -0.11666,14.20292 0.0292,21.2898"
       style="fill:#343132;fill-opacity:1;fill-rule:nonzero;stroke:none"
       id="path234"
       inkscape:connector-curvature="0" /><path
       d="m 143.8774,130.31334 c 4.25796,4.34545 8.57425,8.63258 12.89054,12.93428 23.50627,-22.96673 49.66648,-43.20662 77.99941,-59.873905 -3.13514,-5.191212 -6.19737,-10.440752 -9.2596,-15.67571 -29.80572,17.148498 -57.20541,38.438285 -81.63035,62.615335"
       style="fill:#343132;fill-opacity:1;fill-rule:nonzero;stroke:none"
       id="path236"
       inkscape:connector-curvature="0" /><path
       d="m 636.19677,83.344551 c 28.37668,16.842269 54.47856,37.257139 78.26189,60.107219 4.05381,-4.52043 8.38469,-8.79298 12.71556,-13.05094 -24.59993,-24.08955 -51.83921,-45.700148 -81.86367,-62.673661 -3.07681,5.191212 -6.02238,10.455334 -9.11378,15.617382"
       style="fill:#343132;fill-opacity:1;fill-rule:nonzero;stroke:none"
       id="path238"
       inkscape:connector-curvature="0" /><path
       d="m 255.43013,108.38193 c 3.29554,6.31403 7.04313,12.38016 10.58657,18.56296 24.51244,-13.83838 50.68723,-24.702 77.7661,-32.372156 -1.66235,-6.722328 -3.5726,-13.386327 -5.2787,-20.108655 -29.19328,6.984805 -56.81169,19.554537 -83.07397,33.917851"
       style="fill:#343132;fill-opacity:1;fill-rule:nonzero;stroke:none"
       id="path240"
       inkscape:connector-curvature="0" /><path
       d="m 527.00634,94.558152 c 27.07887,7.582658 53.15159,18.621268 77.7661,32.211748 3.93715,-5.90573 7.36394,-12.11769 10.57199,-18.46088 -26.23312,-14.319568 -53.7932,-26.845554 -82.92815,-33.917851 -1.79359,6.736909 -3.67468,13.430073 -5.40994,20.166983"
       style="fill:#343132;fill-opacity:1;fill-rule:nonzero;stroke:none"
       id="path242"
       inkscape:connector-curvature="0" /><path
       d="m 350.51971,98.291148 c 1.80818,6.911892 3.61635,13.823782 5.48286,20.706512 24.99364,-6.56192 50.84763,-9.62415 76.65786,-10.16369 0.0146,-6.99938 0,-13.984177 0,-20.983564 -27.7059,-0.247895 -55.26599,3.907991 -82.14072,10.440742"
       style="fill:#343132;fill-opacity:1;fill-rule:nonzero;stroke:none"
       id="path244"
       inkscape:connector-curvature="0" /><path
       d="m 438.28911,108.83397 c 25.88315,0.39372 51.66422,3.89341 76.81827,10.01787 1.50195,-6.97022 3.39762,-13.86753 5.38078,-20.735676 -27.02055,-6.211946 -54.6098,-10.35325 -82.37404,-10.513653 -0.1604,7.086879 -0.26247,14.173749 0.17499,21.231459"
       style="fill:#343132;fill-opacity:1;fill-rule:nonzero;stroke:none"
       id="path246"
       inkscape:connector-curvature="0" /><path
       d="m 252.41164,103.51152 c 6.5036,-2.74142 12.52599,-6.474428 18.91293,-9.507486 20.91067,-10.601155 42.9879,-18.737942 65.50259,-25.256121 -1.50195,-6.853566 -3.52885,-13.575894 -5.45369,-20.312804 -31.2056,8.151369 -60.96757,21.129399 -89.16927,36.703035 3.10598,6.284866 6.80982,12.234335 10.20744,18.373376"
       style="fill:#343132;fill-opacity:1;fill-rule:nonzero;stroke:none"
       id="path248"
       inkscape:connector-curvature="0" /><path
       d="m 594.66707,91.525084 c 8.10763,3.660087 15.63197,8.443001 23.79792,11.971856 3.48511,-6.080715 7.21812,-12.030184 10.19286,-18.38796 -28.28919,-15.515308 -58.03659,-28.741232 -89.40259,-36.586378 -1.7061,6.736909 -3.48511,13.444655 -5.35161,20.137819 20.80859,6.036971 41.20889,13.532148 60.76342,22.864663"
       style="fill:#343132;fill-opacity:1;fill-rule:nonzero;stroke:none"
       id="path250"
       inkscape:connector-curvature="0" /><path
       d="m 438.34744,82.411299 c 28.1142,-0.262477 56.08258,4.03923 83.36561,10.586573 1.91025,-6.766074 3.70384,-13.561312 5.49743,-20.35655 -29.10578,-7.553505 -59.1594,-11.534406 -89.2276,-11.694809 0.0437,7.15979 -0.20414,14.334161 0.36456,21.464786"
       style="fill:#343132;fill-opacity:1;fill-rule:nonzero;stroke:none"
       id="path252"
       inkscape:connector-curvature="0" /><path
       d="m 349.26566,92.356261 c 2.17272,0.510372 4.36003,-0.597864 6.53276,-0.889505 25.16863,-5.978643 51.02261,-8.734651 76.81827,-9.463754 0.18956,-6.999387 -0.0292,-14.013356 0.0875,-21.027325 -29.96612,0.05833 -59.81559,4.301707 -88.89221,11.403168 1.63319,6.693164 2.72684,13.605058 5.45369,19.977416"
       style="fill:#343132;fill-opacity:1;fill-rule:nonzero;stroke:none"
       id="path254"
       inkscape:connector-curvature="0" /><path
       d="m 239.02531,80.369812 c 6.19738,-2.595606 11.89896,-6.197374 17.92135,-9.172114 23.36045,-11.70939 47.84373,-21.216891 73.04152,-28.172536 -1.5457,-5.949479 -3.12056,-11.898958 -4.65168,-17.848437 -33.21792,9.332516 -65.40052,22.558446 -95.38122,39.648615 3.1643,5.10372 6.13904,10.309513 9.07003,15.544472"
       style="fill:#343132;fill-opacity:1;fill-rule:nonzero;stroke:none"
       id="path256"
       inkscape:connector-curvature="0" /><path
       d="m 540.90303,43.01058 c 31.71598,8.705492 62.19247,21.639775 90.86079,37.723783 2.79976,-5.32245 5.84741,-10.513662 8.80757,-15.74862 -29.57241,-17.673452 -61.97374,-30.316099 -95.01668,-39.838182 -1.57486,5.949479 -3.14972,11.898958 -4.65168,17.863019"
       style="fill:#343132;fill-opacity:1;fill-rule:nonzero;stroke:none"
       id="path258"
       inkscape:connector-curvature="0" /><path
       d="m 342.10587,67.085559 c 29.68906,-6.838985 59.99058,-11.723973 90.53998,-11.49066 0.0437,-7.043133 0,-14.086271 0.0292,-21.143986 -32.32842,-0.102075 -64.71517,4.010065 -95.8916,12.613483 1.76443,6.678582 3.55802,13.342581 5.32245,20.021163"
       style="fill:#343132;fill-opacity:1;fill-rule:nonzero;stroke:none"
       id="path260"
       inkscape:connector-curvature="0" /><path
       d="m 504.09793,61.879765 c 8.32635,1.531116 16.4923,3.776752 24.8624,5.074555 1.56028,-6.73691 3.35387,-13.415491 5.23496,-20.079491 -31.32226,-8.26803 -63.69442,-12.394752 -96.08117,-12.657229 -0.14582,7.116043 -0.20415,14.246673 0.0875,21.362717 22.09181,-0.04375 44.16904,2.2748 65.89631,6.299448"
       style="fill:#343132;fill-opacity:1;fill-rule:nonzero;stroke:none"
       id="path262"
       inkscape:connector-curvature="0" /><path
       d="m 335.12106,41.042002 c 9.12837,-1.356131 18.02342,-3.864245 27.10804,-5.482853 20.2399,-3.747588 40.77143,-6.095299 61.3613,-6.401522 3.04765,-0.102075 6.09529,-0.408298 9.14294,-0.743685 -0.10207,-5.570346 -0.0875,-11.140691 -0.0583,-16.725618 -12.29268,0.466625 -24.6291,-1.108237 -36.84886,0.627028 -21.96057,2.041488 -43.77533,5.891151 -65.05055,11.665645 1.28322,5.730748 2.8435,11.403167 4.34545,17.061005"
       style="fill:#343132;fill-opacity:1;fill-rule:nonzero;stroke:none"
       id="path264"
       inkscape:connector-curvature="0" /><path
       d="m 455.71466,29.376357 c 27.00597,0.99158 53.69113,5.861987 79.98258,11.91354 1.51653,-5.789076 3.0914,-11.578152 4.47669,-17.425557 -24.76033,-6.591089 -50.19143,-10.630318 -75.7392,-12.453075 -8.80756,0.364551 -17.6297,0.291641 -26.43726,0.277059 0.0146,5.599509 0.0292,11.213601 -0.0729,16.81311 5.90573,0.627028 11.85521,0.802013 17.7901,0.874923"
       style="fill:#343132;fill-opacity:1;fill-rule:nonzero;stroke:none"
       id="path266"
       inkscape:connector-curvature="0" /><path
       sodipodi:type="arc"
       style="color:#000000;fill:none;stroke:#ff0000;stroke-width:1px;stroke-opacity:1;marker:none;visibility:visible;display:inline;overflow:visible;enable-background:accumulate"
       id="path4035"
       sodipodi:cx="320.84464"
       sodipodi:cy="212.72307"
       sodipodi:rx="343.93631"
       sodipodi:ry="343.93631"
       d="M 664.78094,212.72307 A 343.93631,343.93631 0 0 1 320.84464,556.65938 343.93631,343.93631 0 0 1 -23.091675,212.72307 343.93631,343.93631 0 0 1 320.84464,-131.21324 343.93631,343.93631 0 0 1 664.78094,212.72307 Z"
       transform="matrix(1.225376,0,0,-1.225376,42.265396,687.97291)" /><circle
       transform="scale(1,-1)"
       id="path4971"
       style="color:#000000;display:inline;overflow:visible;visibility:visible;fill:none;stroke:#ff0000;stroke-width:1.14015794;stroke-miterlimit:4;stroke-dasharray:none;stroke-opacity:1;marker:none;enable-background:accumulate"
       cx="435.42072"
       cy="-427.30716"
       r="10.553921" /></g></svg>